<svg xmlns="http://www.w3.org/2000/svg" xmlns:xlink="http://www.w3.org/1999/xlink" width="913pt" height="905pt" viewBox="0.00 0.00 912.59 904.62">
<g id="graph0" class="graph" transform="scale(1 1) rotate(0) translate(4 900.62)">
<title>SurveySnap</title>
<polygon fill="white" stroke="none" points="-4,4 -4,-900.62 908.59,-900.62 908.59,4 -4,4"/>
<!-- User -->
<g id="node1" class="node">
<title>User</title>
<ellipse fill="white" stroke="black" cx="565.8" cy="-821.67" rx="102.55" ry="74.95"/>
<text text-anchor="start" x="534.67" y="-859.07" font-family="Helvetica,sans-Serif" font-size="14.00">        </text>
<text text-anchor="start" x="565.79" y="-859.07" font-family="Helvetica,sans-Serif" font-weight="bold" font-size="14.00">User</text>
<text text-anchor="start" x="501.29" y="-845.07" font-family="Helvetica,sans-Serif" font-size="14.00">        ---------------------</text>
<text text-anchor="start" x="524.95" y="-831.07" font-family="Helvetica,sans-Serif" font-size="14.00">        _id (PK)</text>
<text text-anchor="start" x="519.11" y="-817.07" font-family="Helvetica,sans-Serif" font-size="14.00">        username</text>
<text text-anchor="start" x="533.51" y="-803.07" font-family="Helvetica,sans-Serif" font-size="14.00">        email</text>
<text text-anchor="start" x="520.28" y="-789.07" font-family="Helvetica,sans-Serif" font-size="14.00">        password</text>
<text text-anchor="start" x="530.79" y="-775.07" font-family="Helvetica,sans-Serif" font-size="14.00">        role    </text>
</g>
<!-- Survey -->
<g id="node2" class="node">
<title>Survey</title>
<ellipse fill="white" stroke="black" cx="428.8" cy="-589.26" rx="146.55" ry="104.65"/>
<text text-anchor="start" x="389.89" y="-647.66" font-family="Helvetica,sans-Serif" font-size="14.00">        </text>
<text text-anchor="start" x="421.01" y="-647.66" font-family="Helvetica,sans-Serif" font-weight="bold" font-size="14.00">Survey</text>
<text text-anchor="start" x="333.17" y="-633.66" font-family="Helvetica,sans-Serif" font-size="14.00">                ---------------------        </text>
<text text-anchor="start" x="387.95" y="-619.66" font-family="Helvetica,sans-Serif" font-size="14.00">        _id (PK)</text>
<text text-anchor="start" x="370.06" y="-605.66" font-family="Helvetica,sans-Serif" font-size="14.00">        creatorId (FK)</text>
<text text-anchor="start" x="402.35" y="-591.66" font-family="Helvetica,sans-Serif" font-size="14.00">        title</text>
<text text-anchor="start" x="379.39" y="-577.66" font-family="Helvetica,sans-Serif" font-size="14.00">        description</text>
<text text-anchor="start" x="365" y="-563.66" font-family="Helvetica,sans-Serif" font-size="14.00">        categoryId (FK)</text>
<text text-anchor="start" x="372" y="-549.66" font-family="Helvetica,sans-Serif" font-size="14.00">            expiryDate</text>
<text text-anchor="start" x="383.28" y="-535.66" font-family="Helvetica,sans-Serif" font-size="14.00">        createdAt</text>
<text text-anchor="start" x="373.54" y="-521.66" font-family="Helvetica,sans-Serif" font-size="14.00">        updatedAt    </text>
</g>
<!-- User&#45;&gt;Survey -->
<g id="edge1" class="edge">
<title>User-&gt;Survey</title>
<path fill="none" stroke="black" d="M525.25,-752.47C514.65,-734.65 502.98,-715.02 491.52,-695.75"/>
<polygon fill="black" stroke="black" points="494.63,-694.13 486.51,-687.32 488.61,-697.71 494.63,-694.13"/>
<text text-anchor="middle" x="529" y="-716.11" font-family="Times,serif" font-size="14.00">creates</text>
</g>
<!-- Answer -->
<g id="node4" class="node">
<title>Answer</title>
<ellipse fill="white" stroke="black" cx="110.8" cy="-104.65" rx="110.8" ry="104.65"/>
<text text-anchor="start" x="69.95" y="-163.05" font-family="Helvetica,sans-Serif" font-size="14.00">        </text>
<text text-anchor="start" x="101.07" y="-163.05" font-family="Helvetica,sans-Serif" font-weight="bold" font-size="14.00">Answer</text>
<text text-anchor="start" x="40.45" y="-149.05" font-family="Helvetica,sans-Serif" font-size="14.00">           ---------------------</text>
<text text-anchor="start" x="69.95" y="-135.05" font-family="Helvetica,sans-Serif" font-size="14.00">        _id (PK)</text>
<text text-anchor="start" x="47.38" y="-121.05" font-family="Helvetica,sans-Serif" font-size="14.00">        questionId (FK)</text>
<text text-anchor="start" x="53.23" y="-107.05" font-family="Helvetica,sans-Serif" font-size="14.00">        surveyId (FK)</text>
<text text-anchor="start" x="60.23" y="-93.05" font-family="Helvetica,sans-Serif" font-size="14.00">        userId (FK)</text>
<text text-anchor="start" x="59.06" y="-79.05" font-family="Helvetica,sans-Serif" font-size="14.00">        answerText</text>
<text text-anchor="start" x="48.54" y="-65.05" font-family="Helvetica,sans-Serif" font-size="14.00">        selectedOption</text>
<text text-anchor="start" x="59.82" y="-51.05" font-family="Helvetica,sans-Serif" font-size="14.00">        ratingValue</text>
<text text-anchor="start" x="57.5" y="-37.05" font-family="Helvetica,sans-Serif" font-size="14.00">        createdAt    </text>
</g>
<!-- User&#45;&gt;Answer -->
<g id="edge4" class="edge">
<title>User-&gt;Answer</title>
<path fill="none" stroke="black" d="M471.01,-792.55C410.47,-771.61 332.44,-738.87 272.8,-693.91 168.43,-615.24 142.95,-584.36 86.23,-466.61 48.69,-388.67 58.65,-290.12 75.87,-215.69"/>
<polygon fill="black" stroke="black" points="79.18,-216.9 78.11,-206.36 72.37,-215.27 79.18,-216.9"/>
<text text-anchor="middle" x="108.01" y="-454.01" font-family="Times,serif" font-size="14.00">submits</text>
</g>
<!-- Response -->
<g id="node5" class="node">
<title>Response</title>
<ellipse fill="white" stroke="black" cx="765.8" cy="-346.96" rx="110.8" ry="65.05"/>
<text text-anchor="start" x="716.78" y="-377.36" font-family="Helvetica,sans-Serif" font-size="14.00">        </text>
<text text-anchor="start" x="747.9" y="-377.36" font-family="Helvetica,sans-Serif" font-weight="bold" font-size="14.00">Response</text>
<text text-anchor="start" x="695.45" y="-363.36" font-family="Helvetica,sans-Serif" font-size="14.00">           ---------------------</text>
<text text-anchor="start" x="724.95" y="-349.36" font-family="Helvetica,sans-Serif" font-size="14.00">        _id (PK)</text>
<text text-anchor="start" x="708.23" y="-335.36" font-family="Helvetica,sans-Serif" font-size="14.00">        surveyId (FK)</text>
<text text-anchor="start" x="715.23" y="-321.36" font-family="Helvetica,sans-Serif" font-size="14.00">        userId (FK)</text>
<text text-anchor="start" x="705.5" y="-307.36" font-family="Helvetica,sans-Serif" font-size="14.00">        submittedAt    </text>
</g>
<!-- User&#45;&gt;Response -->
<g id="edge5" class="edge">
<title>User-&gt;Response</title>
<path fill="none" stroke="black" d="M577.3,-746.88C592.54,-649.72 617.86,-490.4 620.94,-484.61 637.05,-454.3 662.45,-426.95 687.51,-404.82"/>
<polygon fill="black" stroke="black" points="689.55,-407.68 694.84,-398.5 684.98,-402.38 689.55,-407.68"/>
<text text-anchor="middle" x="647.37" y="-585.06" font-family="Times,serif" font-size="14.00">generates</text>
</g>
<!-- Role -->
<g id="node7" class="node">
<title>Role</title>
<ellipse fill="white" stroke="black" cx="793.8" cy="-589.26" rx="110.8" ry="45.25"/>
<text text-anchor="start" x="763.07" y="-605.66" font-family="Helvetica,sans-Serif" font-size="14.00">        </text>
<text text-anchor="start" x="794.19" y="-605.66" font-family="Helvetica,sans-Serif" font-weight="bold" font-size="14.00">Role</text>
<text text-anchor="start" x="723.45" y="-591.66" font-family="Helvetica,sans-Serif" font-size="14.00">           ---------------------</text>
<text text-anchor="start" x="752.95" y="-577.66" font-family="Helvetica,sans-Serif" font-size="14.00">        _id (PK)</text>
<text text-anchor="start" x="740.11" y="-563.66" font-family="Helvetica,sans-Serif" font-size="14.00">        roleName    </text>
</g>
<!-- User&#45;&gt;Role -->
<g id="edge9" class="edge">
<title>User-&gt;Role</title>
<path fill="none" stroke="black" d="M625.4,-760.43C662.69,-722.75 710.13,-674.81 745.14,-639.43"/>
<polygon fill="black" stroke="black" points="747.25,-642.27 751.8,-632.7 742.28,-637.35 747.25,-642.27"/>
<text text-anchor="middle" x="682.29" y="-716.11" font-family="Times,serif" font-size="14.00">has</text>
</g>
<!-- Question -->
<g id="node3" class="node">
<title>Question</title>
<ellipse fill="white" stroke="black" cx="525.8" cy="-346.96" rx="110.8" ry="84.85"/>
<text text-anchor="start" x="479.9" y="-391.36" font-family="Helvetica,sans-Serif" font-size="14.00">        </text>
<text text-anchor="start" x="511.02" y="-391.36" font-family="Helvetica,sans-Serif" font-weight="bold" font-size="14.00">Question</text>
<text text-anchor="start" x="455.45" y="-377.36" font-family="Helvetica,sans-Serif" font-size="14.00">           ---------------------</text>
<text text-anchor="start" x="484.95" y="-363.36" font-family="Helvetica,sans-Serif" font-size="14.00">        _id (PK)</text>
<text text-anchor="start" x="468.23" y="-349.36" font-family="Helvetica,sans-Serif" font-size="14.00">        surveyId (FK)</text>
<text text-anchor="start" x="470.16" y="-335.36" font-family="Helvetica,sans-Serif" font-size="14.00">        questionText</text>
<text text-anchor="start" x="468.21" y="-321.36" font-family="Helvetica,sans-Serif" font-size="14.00">        questionType</text>
<text text-anchor="start" x="484.56" y="-307.36" font-family="Helvetica,sans-Serif" font-size="14.00">        required</text>
<text text-anchor="start" x="479.89" y="-293.36" font-family="Helvetica,sans-Serif" font-size="14.00">        options    </text>
</g>
<!-- Survey&#45;&gt;Question -->
<g id="edge2" class="edge">
<title>Survey-&gt;Question</title>
<path fill="none" stroke="black" d="M469.09,-488.44C475.71,-472.04 482.54,-455.13 489.06,-438.96"/>
<polygon fill="black" stroke="black" points="492.24,-440.44 492.74,-429.86 485.75,-437.82 492.24,-440.44"/>
<text text-anchor="middle" x="492.44" y="-454.01" font-family="Times,serif" font-size="14.00">has</text>
</g>
<!-- Survey&#45;&gt;Answer -->
<g id="edge7" class="edge">
<title>Survey-&gt;Answer</title>
<path fill="none" stroke="black" d="M290.6,-553.83C227.08,-530.44 157.47,-492.37 119.14,-431.81 79.47,-369.13 78.2,-285.22 86.43,-218.21"/>
<polygon fill="black" stroke="black" points="89.85,-219.06 87.69,-208.69 82.91,-218.14 89.85,-219.06"/>
<text text-anchor="middle" x="142.47" y="-342.76" font-family="Times,serif" font-size="14.00">contains</text>
</g>
<!-- Survey&#45;&gt;Response -->
<g id="edge6" class="edge">
<title>Survey-&gt;Response</title>
<path fill="none" stroke="black" d="M497.02,-496.47C514.16,-478.64 533.79,-461.8 555.04,-449.81 590.85,-429.6 607.97,-447.93 645.8,-431.81 661.52,-425.11 677.27,-416.14 691.94,-406.56"/>
<polygon fill="black" stroke="black" points="693.81,-409.51 700.16,-401.03 689.91,-403.7 693.81,-409.51"/>
<text text-anchor="middle" x="576.42" y="-454.01" font-family="Times,serif" font-size="14.00">collects</text>
</g>
<!-- Category -->
<g id="node6" class="node">
<title>Category</title>
<ellipse fill="white" stroke="black" cx="285.8" cy="-346.96" rx="110.8" ry="45.25"/>
<text text-anchor="start" x="239.9" y="-363.36" font-family="Helvetica,sans-Serif" font-size="14.00">        </text>
<text text-anchor="start" x="271.01" y="-363.36" font-family="Helvetica,sans-Serif" font-weight="bold" font-size="14.00">Category</text>
<text text-anchor="start" x="215.45" y="-349.36" font-family="Helvetica,sans-Serif" font-size="14.00">           ---------------------</text>
<text text-anchor="start" x="244.95" y="-335.36" font-family="Helvetica,sans-Serif" font-size="14.00">        _id (PK)</text>
<text text-anchor="start" x="216.94" y="-321.36" font-family="Helvetica,sans-Serif" font-size="14.00">        categoryName    </text>
</g>
<!-- Survey&#45;&gt;Category -->
<g id="edge8" class="edge">
<title>Survey-&gt;Category</title>
<path fill="none" stroke="black" d="M371.87,-492.6C353.28,-461.36 333.31,-427.81 317.3,-400.89"/>
<polygon fill="black" stroke="black" points="320.48,-399.4 312.36,-392.6 314.47,-402.98 320.48,-399.4"/>
<text text-anchor="middle" x="385.26" y="-454.01" font-family="Times,serif" font-size="14.00">categorized</text>
</g>
<!-- Question&#45;&gt;Answer -->
<g id="edge3" class="edge">
<title>Question-&gt;Answer</title>
<path fill="none" stroke="black" d="M445.69,-287.97C432.54,-279.04 418.92,-270.12 405.8,-262.1 345.37,-225.16 275.44,-187.85 218.83,-158.93"/>
<polygon fill="black" stroke="black" points="220.63,-155.92 210.13,-154.5 217.46,-162.16 220.63,-155.92"/>
<text text-anchor="middle" x="397.64" y="-231.5" font-family="Times,serif" font-size="14.00">receives</text>
</g>
</g>
</svg>