<svg xmlns="http://www.w3.org/2000/svg" xmlns:xlink="http://www.w3.org/1999/xlink" width="808pt" height="845pt" viewBox="0.00 0.00 808.23 845.22">
<g id="graph0" class="graph" transform="scale(1 1) rotate(0) translate(4 841.22)">
<title>SurveySnap</title>
<polygon fill="white" stroke="none" points="-4,4 -4,-841.22 804.23,-841.22 804.23,4 -4,4"/>
<!-- User -->
<g id="node1" class="node">
<title>User</title>
<ellipse fill="white" stroke="black" cx="519.99" cy="-772.17" rx="77.34" ry="65.05"/>
<text text-anchor="start" x="488.87" y="-802.57" font-family="Helvetica,sans-Serif" font-size="14.00">        </text>
<text text-anchor="start" x="519.99" y="-802.57" font-family="Helvetica,sans-Serif" font-weight="bold" font-size="14.00">User</text>
<text text-anchor="start" x="479.15" y="-788.57" font-family="Helvetica,sans-Serif" font-size="14.00">        _id (PK)</text>
<text text-anchor="start" x="473.31" y="-774.57" font-family="Helvetica,sans-Serif" font-size="14.00">        username</text>
<text text-anchor="start" x="487.71" y="-760.57" font-family="Helvetica,sans-Serif" font-size="14.00">        email</text>
<text text-anchor="start" x="474.48" y="-746.57" font-family="Helvetica,sans-Serif" font-size="14.00">        password</text>
<text text-anchor="start" x="484.98" y="-732.57" font-family="Helvetica,sans-Serif" font-size="14.00">        role    </text>
</g>
<!-- Survey -->
<g id="node2" class="node">
<title>Survey</title>
<ellipse fill="white" stroke="black" cx="416.99" cy="-549.66" rx="101.54" ry="104.65"/>
<text text-anchor="start" x="378.09" y="-608.06" font-family="Helvetica,sans-Serif" font-size="14.00">        </text>
<text text-anchor="start" x="409.2" y="-608.06" font-family="Helvetica,sans-Serif" font-weight="bold" font-size="14.00">Survey</text>
<text text-anchor="start" x="376.15" y="-594.06" font-family="Helvetica,sans-Serif" font-size="14.00">        _id (PK)</text>
<text text-anchor="start" x="358.26" y="-580.06" font-family="Helvetica,sans-Serif" font-size="14.00">        creatorId (FK)</text>
<text text-anchor="start" x="390.54" y="-566.06" font-family="Helvetica,sans-Serif" font-size="14.00">        title</text>
<text text-anchor="start" x="367.58" y="-552.06" font-family="Helvetica,sans-Serif" font-size="14.00">        description</text>
<text text-anchor="start" x="353.2" y="-538.06" font-family="Helvetica,sans-Serif" font-size="14.00">        categoryId (FK)</text>
<text text-anchor="start" x="382.76" y="-524.06" font-family="Helvetica,sans-Serif" font-size="14.00">        status</text>
<text text-anchor="start" x="367.98" y="-510.06" font-family="Helvetica,sans-Serif" font-size="14.00">        expiryDate</text>
<text text-anchor="start" x="371.47" y="-496.06" font-family="Helvetica,sans-Serif" font-size="14.00">        createdAt</text>
<text text-anchor="start" x="361.74" y="-482.06" font-family="Helvetica,sans-Serif" font-size="14.00">        updatedAt    </text>
</g>
<!-- User&#45;&gt;Survey -->
<g id="edge1" class="edge">
<title>User-&gt;Survey</title>
<path fill="none" stroke="black" d="M491.98,-711.21C483.8,-693.69 474.62,-674.03 465.55,-654.62"/>
<polygon fill="black" stroke="black" points="468.73,-653.15 461.32,-645.57 462.39,-656.11 468.73,-653.15"/>
<text text-anchor="middle" x="500.18" y="-676.51" font-family="Times,serif" font-size="14.00">creates</text>
</g>
<!-- Answer -->
<g id="node4" class="node">
<title>Answer</title>
<ellipse fill="white" stroke="black" cx="100.99" cy="-94.75" rx="100.99" ry="94.75"/>
<text text-anchor="start" x="60.15" y="-146.15" font-family="Helvetica,sans-Serif" font-size="14.00">        </text>
<text text-anchor="start" x="91.27" y="-146.15" font-family="Helvetica,sans-Serif" font-weight="bold" font-size="14.00">Answer</text>
<text text-anchor="start" x="60.15" y="-132.15" font-family="Helvetica,sans-Serif" font-size="14.00">        _id (PK)</text>
<text text-anchor="start" x="37.58" y="-118.15" font-family="Helvetica,sans-Serif" font-size="14.00">        questionId (FK)</text>
<text text-anchor="start" x="43.43" y="-104.15" font-family="Helvetica,sans-Serif" font-size="14.00">        surveyId (FK)</text>
<text text-anchor="start" x="50.43" y="-90.15" font-family="Helvetica,sans-Serif" font-size="14.00">        userId (FK)</text>
<text text-anchor="start" x="49.26" y="-76.15" font-family="Helvetica,sans-Serif" font-size="14.00">        answerText</text>
<text text-anchor="start" x="38.74" y="-62.15" font-family="Helvetica,sans-Serif" font-size="14.00">        selectedOption</text>
<text text-anchor="start" x="50.02" y="-48.15" font-family="Helvetica,sans-Serif" font-size="14.00">        ratingValue</text>
<text text-anchor="start" x="47.69" y="-34.15" font-family="Helvetica,sans-Serif" font-size="14.00">        createdAt    </text>
</g>
<!-- User&#45;&gt;Answer -->
<g id="edge4" class="edge">
<title>User-&gt;Answer</title>
<path fill="none" stroke="black" d="M451.2,-741.99C347.59,-693.8 155.27,-586.74 76.43,-427.01 41.17,-355.59 51.11,-264.82 67.73,-196.36"/>
<polygon fill="black" stroke="black" points="71.03,-197.59 70.08,-187.04 64.25,-195.88 71.03,-197.59"/>
<text text-anchor="middle" x="98.21" y="-414.41" font-family="Times,serif" font-size="14.00">submits</text>
</g>
<!-- Response -->
<g id="node5" class="node">
<title>Response</title>
<ellipse fill="white" stroke="black" cx="699.99" cy="-317.26" rx="96.59" ry="55.15"/>
<text text-anchor="start" x="650.98" y="-340.66" font-family="Helvetica,sans-Serif" font-size="14.00">        </text>
<text text-anchor="start" x="682.1" y="-340.66" font-family="Helvetica,sans-Serif" font-weight="bold" font-size="14.00">Response</text>
<text text-anchor="start" x="659.15" y="-326.66" font-family="Helvetica,sans-Serif" font-size="14.00">        _id (PK)</text>
<text text-anchor="start" x="642.43" y="-312.66" font-family="Helvetica,sans-Serif" font-size="14.00">        surveyId (FK)</text>
<text text-anchor="start" x="649.43" y="-298.66" font-family="Helvetica,sans-Serif" font-size="14.00">        userId (FK)</text>
<text text-anchor="start" x="639.69" y="-284.66" font-family="Helvetica,sans-Serif" font-size="14.00">        submittedAt    </text>
</g>
<!-- User&#45;&gt;Response -->
<g id="edge5" class="edge">
<title>User-&gt;Response</title>
<path fill="none" stroke="black" d="M526.35,-706.93C535.44,-618.56 552.38,-467.76 564.14,-445.01 579.65,-415.02 605.18,-388.37 629.95,-367.34"/>
<polygon fill="black" stroke="black" points="632.02,-370.17 637.5,-361.1 627.56,-364.77 632.02,-370.17"/>
<text text-anchor="middle" x="590.57" y="-545.46" font-family="Times,serif" font-size="14.00">generates</text>
</g>
<!-- Role -->
<g id="node7" class="node">
<title>Role</title>
<ellipse fill="white" stroke="black" cx="712.99" cy="-549.66" rx="87.23" ry="35.36"/>
<text text-anchor="start" x="682.27" y="-559.06" font-family="Helvetica,sans-Serif" font-size="14.00">        </text>
<text text-anchor="start" x="713.38" y="-559.06" font-family="Helvetica,sans-Serif" font-weight="bold" font-size="14.00">Role</text>
<text text-anchor="start" x="672.15" y="-545.06" font-family="Helvetica,sans-Serif" font-size="14.00">        _id (PK)</text>
<text text-anchor="start" x="659.31" y="-531.06" font-family="Helvetica,sans-Serif" font-size="14.00">        roleName    </text>
</g>
<!-- User&#45;&gt;Role -->
<g id="edge9" class="edge">
<title>User-&gt;Role</title>
<path fill="none" stroke="black" d="M565.49,-719.19C599.53,-680.29 645.47,-627.81 676.98,-591.81"/>
<polygon fill="black" stroke="black" points="679.32,-594.45 683.27,-584.62 674.05,-589.84 679.32,-594.45"/>
<text text-anchor="middle" x="614.27" y="-676.51" font-family="Times,serif" font-size="14.00">has</text>
</g>
<!-- Question -->
<g id="node3" class="node">
<title>Question</title>
<ellipse fill="white" stroke="black" cx="492.99" cy="-317.26" rx="92.75" ry="74.95"/>
<text text-anchor="start" x="447.1" y="-354.66" font-family="Helvetica,sans-Serif" font-size="14.00">        </text>
<text text-anchor="start" x="478.22" y="-354.66" font-family="Helvetica,sans-Serif" font-weight="bold" font-size="14.00">Question</text>
<text text-anchor="start" x="452.15" y="-340.66" font-family="Helvetica,sans-Serif" font-size="14.00">        _id (PK)</text>
<text text-anchor="start" x="435.43" y="-326.66" font-family="Helvetica,sans-Serif" font-size="14.00">        surveyId (FK)</text>
<text text-anchor="start" x="437.36" y="-312.66" font-family="Helvetica,sans-Serif" font-size="14.00">        questionText</text>
<text text-anchor="start" x="435.41" y="-298.66" font-family="Helvetica,sans-Serif" font-size="14.00">        questionType</text>
<text text-anchor="start" x="451.75" y="-284.66" font-family="Helvetica,sans-Serif" font-size="14.00">        required</text>
<text text-anchor="start" x="447.08" y="-270.66" font-family="Helvetica,sans-Serif" font-size="14.00">        options    </text>
</g>
<!-- Survey&#45;&gt;Question -->
<g id="edge2" class="edge">
<title>Survey-&gt;Question</title>
<path fill="none" stroke="black" d="M436.38,-446.54C439.6,-434.17 443.25,-421.82 447.33,-410.21 448.86,-405.86 450.55,-401.45 452.35,-397.04"/>
<polygon fill="black" stroke="black" points="455.43,-398.72 456.13,-388.15 448.99,-395.98 455.43,-398.72"/>
<text text-anchor="middle" x="456.66" y="-414.41" font-family="Times,serif" font-size="14.00">has</text>
</g>
<!-- Survey&#45;&gt;Answer -->
<g id="edge7" class="edge">
<title>Survey-&gt;Answer</title>
<path fill="none" stroke="black" d="M317.61,-526.67C246.42,-505.23 155.32,-464.87 109.34,-392.21 73.5,-335.59 71.95,-259.91 79.08,-199.19"/>
<polygon fill="black" stroke="black" points="82.52,-199.9 80.31,-189.54 75.57,-199.02 82.52,-199.9"/>
<text text-anchor="middle" x="132.67" y="-313.06" font-family="Times,serif" font-size="14.00">contains</text>
</g>
<!-- Survey&#45;&gt;Response -->
<g id="edge6" class="edge">
<title>Survey-&gt;Response</title>
<path fill="none" stroke="black" d="M457.81,-453.71C468.77,-437.07 482.15,-421.5 498.24,-410.21 534.04,-385.08 554.68,-409.2 594.99,-392.21 609.13,-386.25 623.25,-378.16 636.35,-369.5"/>
<polygon fill="black" stroke="black" points="638.15,-372.51 644.44,-363.98 634.2,-366.73 638.15,-372.51"/>
<text text-anchor="middle" x="519.61" y="-414.41" font-family="Times,serif" font-size="14.00">collects</text>
</g>
<!-- Category -->
<g id="node6" class="node">
<title>Category</title>
<ellipse fill="white" stroke="black" cx="273.99" cy="-317.26" rx="108.69" ry="35.36"/>
<text text-anchor="start" x="228.09" y="-326.66" font-family="Helvetica,sans-Serif" font-size="14.00">        </text>
<text text-anchor="start" x="259.21" y="-326.66" font-family="Helvetica,sans-Serif" font-weight="bold" font-size="14.00">Category</text>
<text text-anchor="start" x="233.15" y="-312.66" font-family="Helvetica,sans-Serif" font-size="14.00">        _id (PK)</text>
<text text-anchor="start" x="205.14" y="-298.66" font-family="Helvetica,sans-Serif" font-size="14.00">        categoryName    </text>
</g>
<!-- Survey&#45;&gt;Category -->
<g id="edge8" class="edge">
<title>Survey-&gt;Category</title>
<path fill="none" stroke="black" d="M362.52,-460.9C341.48,-427 318.35,-389.73 301.02,-361.79"/>
<polygon fill="black" stroke="black" points="304.18,-360.26 295.93,-353.61 298.23,-363.95 304.18,-360.26"/>
<text text-anchor="middle" x="373.46" y="-414.41" font-family="Times,serif" font-size="14.00">categorized</text>
</g>
<!-- Question&#45;&gt;Answer -->
<g id="edge3" class="edge">
<title>Question-&gt;Answer</title>
<path fill="none" stroke="black" d="M426.15,-264.95C414.95,-257.05 403.3,-249.23 391.99,-242.3 330.89,-204.9 259.03,-168.64 202,-141.54"/>
<polygon fill="black" stroke="black" points="203.8,-138.52 193.27,-137.41 200.81,-144.85 203.8,-138.52"/>
<text text-anchor="middle" x="384.54" y="-211.7" font-family="Times,serif" font-size="14.00">receives</text>
</g>
</g>
</svg>